<svg xmlns="http://www.w3.org/2000/svg" xmlns:xlink="http://www.w3.org/1999/xlink" width="500" zoomAndPan="magnify" viewBox="0 0 375 374.999991" height="500" preserveAspectRatio="xMidYMid meet" version="1.0"><defs><clipPath id="94692a370f"><path d="M 132 179 L 243 179 L 243 259.363281 L 132 259.363281 Z M 132 179 " clip-rule="nonzero"/></clipPath><clipPath id="38af9f2058"><path d="M 112.5 116 L 262.5 116 L 262.5 183 L 112.5 183 Z M 112.5 116 " clip-rule="nonzero"/></clipPath></defs><g clip-path="url(#94692a370f)"><path fill="#f7fcf6" d="M 236.011719 249.195312 C 236.011719 251.113281 234.449219 252.644531 232.558594 252.644531 L 208.320312 252.644531 C 206.398438 252.644531 204.871094 251.082031 204.871094 249.195312 L 204.871094 213.253906 C 204.871094 207.523438 200.21875 202.875 194.488281 202.875 L 180.628906 202.875 C 174.898438 202.875 170.25 207.523438 170.25 213.253906 L 170.25 249.195312 C 170.25 251.113281 168.691406 252.644531 166.800781 252.644531 L 142.46875 252.644531 C 140.550781 252.644531 139.019531 251.082031 139.019531 249.195312 L 139.019531 179.921875 L 132.089844 179.921875 L 132.089844 249.195312 C 132.089844 254.921875 136.738281 259.574219 142.46875 259.574219 L 166.710938 259.574219 C 172.441406 259.574219 177.089844 254.921875 177.089844 249.195312 L 177.089844 213.253906 C 177.089844 211.332031 178.648438 209.804688 180.539062 209.804688 L 194.398438 209.804688 C 196.320312 209.804688 197.851562 211.363281 197.851562 213.253906 L 197.851562 249.195312 C 197.851562 254.921875 202.5 259.574219 208.230469 259.574219 L 232.46875 259.574219 C 238.199219 259.574219 242.851562 254.921875 242.851562 249.195312 L 242.851562 179.921875 L 235.921875 179.921875 Z M 236.011719 249.195312 " fill-opacity="1" fill-rule="nonzero"/></g><g clip-path="url(#38af9f2058)"><path fill="#f7fcf6" d="M 194.25 118.785156 C 190.320312 115.421875 184.648438 115.421875 180.71875 118.785156 L 112.5 177.285156 L 117 182.535156 L 185.25 124.035156 C 186.570312 122.921875 188.460938 122.921875 189.75 124.035156 L 258 182.535156 L 262.5 177.285156 Z M 194.25 118.785156 " fill-opacity="1" fill-rule="nonzero"/></g></svg>