<svg xmlns="http://www.w3.org/2000/svg" xmlns:xlink="http://www.w3.org/1999/xlink" width="500" zoomAndPan="magnify" viewBox="0 0 375 374.999991" height="500" preserveAspectRatio="xMidYMid meet" version="1.0"><defs><clipPath id="8db63552df"><path d="M 118.546875 112.5 L 256.546875 112.5 L 256.546875 262.5 L 118.546875 262.5 Z M 118.546875 112.5 " clip-rule="nonzero"/></clipPath></defs><g clip-path="url(#8db63552df)"><path fill="#f7fcf6" d="M 256.445312 248.953125 L 256.445312 247.441406 C 256.445312 238.136719 254.621094 229.105469 251.023438 220.601562 C 247.550781 212.390625 242.582031 205.019531 236.25 198.6875 C 229.921875 192.359375 222.550781 187.390625 214.339844 183.917969 C 213.800781 183.6875 213.257812 183.46875 212.710938 183.253906 C 213.742188 182.410156 214.738281 181.511719 215.691406 180.558594 C 219.347656 176.898438 222.222656 172.636719 224.230469 167.886719 C 226.3125 162.96875 227.367188 157.746094 227.367188 152.367188 C 227.367188 146.988281 226.3125 141.765625 224.230469 136.847656 C 222.222656 132.097656 219.347656 127.835938 215.691406 124.175781 C 212.03125 120.515625 207.769531 117.644531 203.019531 115.636719 C 198.101562 113.554688 192.878906 112.5 187.5 112.5 C 182.121094 112.5 176.902344 113.554688 171.980469 115.636719 C 167.230469 117.644531 162.96875 120.515625 159.3125 124.175781 C 155.652344 127.835938 152.777344 132.097656 150.769531 136.847656 C 148.6875 141.765625 147.632812 146.988281 147.632812 152.367188 C 147.632812 157.746094 148.6875 162.96875 150.769531 167.886719 C 152.777344 172.636719 155.652344 176.898438 159.3125 180.558594 C 160.265625 181.511719 161.257812 182.40625 162.292969 183.253906 C 161.746094 183.46875 161.203125 183.6875 160.660156 183.917969 C 152.449219 187.390625 145.078125 192.359375 138.75 198.6875 C 132.421875 205.019531 127.449219 212.390625 123.976562 220.601562 C 120.378906 229.105469 118.558594 238.136719 118.558594 247.441406 L 118.558594 248.953125 C 118.558594 256.03125 123.988281 261.863281 130.902344 262.5 L 245.039062 262.382812 L 245.078125 262.375 C 246.265625 262.253906 247.417969 261.902344 248.472656 261.339844 C 253.171875 259.191406 256.445312 254.449219 256.445312 248.953125 Z M 158.117188 164.777344 C 156.453125 160.847656 155.609375 156.671875 155.609375 152.367188 C 155.609375 148.0625 156.453125 143.886719 158.117188 139.953125 C 159.722656 136.15625 162.023438 132.746094 164.953125 129.816406 C 167.878906 126.886719 171.289062 124.589844 175.085938 122.984375 C 179.019531 121.320312 183.195312 120.476562 187.5 120.476562 C 191.804688 120.476562 195.980469 121.320312 199.914062 122.984375 C 203.710938 124.589844 207.121094 126.886719 210.050781 129.816406 C 212.980469 132.746094 215.277344 136.15625 216.882812 139.953125 C 218.546875 143.886719 219.390625 148.0625 219.390625 152.367188 C 219.390625 156.671875 218.546875 160.847656 216.882812 164.777344 C 215.277344 168.578125 212.980469 171.988281 210.050781 174.914062 C 207.121094 177.84375 203.710938 180.144531 199.914062 181.75 C 195.980469 183.414062 191.804688 184.257812 187.5 184.257812 C 183.195312 184.257812 179.019531 183.414062 175.085938 181.75 C 171.289062 180.144531 167.878906 177.84375 164.953125 174.914062 C 162.023438 171.988281 159.722656 168.578125 158.117188 164.777344 Z M 248.46875 248.953125 C 248.46875 252.058594 245.941406 254.582031 242.839844 254.582031 L 132.160156 254.582031 C 129.058594 254.582031 126.535156 252.058594 126.535156 248.953125 L 126.535156 247.441406 C 126.535156 239.210938 128.144531 231.226562 131.324219 223.707031 C 134.394531 216.449219 138.792969 209.929688 144.390625 204.328125 C 149.988281 198.730469 156.507812 194.335938 163.769531 191.261719 C 165.371094 190.585938 167.011719 189.972656 168.65625 189.4375 C 169.230469 189.253906 169.8125 189.074219 170.390625 188.902344 C 170.605469 188.839844 170.808594 188.761719 171.003906 188.667969 C 171.328125 188.8125 171.652344 188.957031 171.980469 189.097656 C 176.898438 191.179688 182.121094 192.234375 187.5 192.234375 C 192.878906 192.234375 198.101562 191.175781 203.019531 189.097656 C 203.347656 188.957031 203.675781 188.8125 204 188.667969 C 204.191406 188.761719 204.398438 188.839844 204.613281 188.902344 C 206.847656 189.558594 209.074219 190.351562 211.230469 191.261719 C 218.492188 194.335938 225.011719 198.730469 230.609375 204.328125 C 236.210938 209.929688 240.605469 216.449219 243.675781 223.707031 C 246.855469 231.226562 248.46875 239.210938 248.46875 247.4375 Z M 248.46875 248.953125 " fill-opacity="1" fill-rule="nonzero"/></g></svg>