<svg xmlns="http://www.w3.org/2000/svg" xmlns:xlink="http://www.w3.org/1999/xlink" width="500" zoomAndPan="magnify" viewBox="0 0 375 374.999991" height="500" preserveAspectRatio="xMidYMid meet" version="1.0"><defs><filter x="0%" y="0%" width="100%" height="100%" id="50cb7fefb0"><feColorMatrix values="0 0 0 0 1 0 0 0 0 1 0 0 0 0 1 0 0 0 1 0" color-interpolation-filters="sRGB"/></filter><clipPath id="369ee85733"><path d="M 163 119 L 262.5 119 L 262.5 262.5 L 163 262.5 Z M 163 119 " clip-rule="nonzero"/></clipPath><clipPath id="200267d726"><path d="M 112.5 112.5 L 212 112.5 L 212 256 L 112.5 256 Z M 112.5 112.5 " clip-rule="nonzero"/></clipPath><mask id="7ac67f35f2"><g filter="url(#50cb7fefb0)"><rect x="-37.5" width="450" fill="#000000" y="-37.499999" height="449.999989" fill-opacity="0.25"/></g></mask><clipPath id="2d65bfe5c7"><path d="M 0.1875 0.328125 L 116.4375 0.328125 L 116.4375 118.828125 L 0.1875 118.828125 Z M 0.1875 0.328125 " clip-rule="nonzero"/></clipPath><clipPath id="db0b037385"><rect x="0" width="118" y="0" height="119"/></clipPath></defs><g clip-path="url(#369ee85733)"><path fill="#222538" d="M 256.613281 158.3125 C 252.835938 149.378906 247.425781 141.359375 240.539062 134.472656 C 237.957031 131.890625 235.21875 129.515625 232.328125 127.359375 C 230.242188 125.800781 228.078125 124.351562 225.839844 123.023438 C 223.382812 121.558594 220.835938 120.238281 218.210938 119.058594 L 218.210938 183.847656 L 197.492188 183.847656 L 197.492188 165.796875 L 189.863281 165.796875 L 189.863281 209.21875 L 197.492188 209.21875 L 197.492188 190.917969 L 218.210938 190.917969 L 218.210938 209.21875 L 225.839844 209.21875 L 225.839844 130.75 C 228.101562 132.28125 230.269531 133.945312 232.328125 135.730469 C 246.832031 148.300781 256.019531 166.851562 256.019531 187.507812 C 256.019531 225.285156 225.285156 256.019531 187.507812 256.019531 C 178.984375 256.019531 170.820312 254.457031 163.289062 251.597656 L 163.289062 258.511719 C 171.058594 261.164062 179.179688 262.507812 187.507812 262.507812 C 197.628906 262.507812 207.453125 260.523438 216.703125 256.613281 C 225.632812 252.835938 233.652344 247.425781 240.539062 240.539062 C 247.425781 233.652344 252.835938 225.632812 256.613281 216.703125 C 260.523438 207.453125 262.507812 197.628906 262.507812 187.507812 C 262.507812 177.382812 260.523438 167.558594 256.613281 158.3125 Z M 256.613281 158.3125 " fill-opacity="1" fill-rule="nonzero"/></g><g clip-path="url(#200267d726)"><path fill="#222538" d="M 178.699219 184.589844 L 156.800781 184.589844 L 156.800781 172.742188 L 181.492188 172.742188 L 181.492188 165.796875 L 149.171875 165.796875 L 149.171875 244.265625 C 146.910156 242.730469 144.742188 241.066406 142.683594 239.28125 C 128.179688 226.710938 118.992188 208.160156 118.992188 187.507812 C 118.992188 149.726562 149.726562 118.992188 187.507812 118.992188 C 196.027344 118.992188 204.191406 120.558594 211.722656 123.414062 L 211.722656 116.5 C 203.957031 113.847656 195.832031 112.503906 187.507812 112.503906 C 177.382812 112.503906 167.558594 114.488281 158.3125 118.402344 C 149.378906 122.179688 141.359375 127.585938 134.472656 134.472656 C 127.585938 141.359375 122.179688 149.378906 118.402344 158.3125 C 114.488281 167.558594 112.503906 177.382812 112.503906 187.507812 C 112.503906 197.628906 114.488281 207.453125 118.402344 216.703125 C 122.179688 225.632812 127.585938 233.652344 134.472656 240.539062 C 137.054688 243.121094 139.796875 245.496094 142.683594 247.652344 C 144.769531 249.214844 146.933594 250.660156 149.171875 251.988281 C 151.628906 253.453125 154.175781 254.777344 156.800781 255.953125 L 156.800781 191.539062 L 178.699219 191.539062 Z M 178.699219 184.589844 " fill-opacity="1" fill-rule="nonzero"/></g><g mask="url(#7ac67f35f2)"><g transform="matrix(1, 0, 0, 1, 129, 128)"><g clip-path="url(#db0b037385)"><g clip-path="url(#2d65bfe5c7)"><path fill="#000000" d="M 49.679688 22.992188 C 51.046875 24.441406 52.410156 25.894531 53.773438 27.34375 C 53.949219 27.527344 54.128906 27.726562 54.179688 27.976562 C 54.226562 28.207031 54.152344 28.441406 54.15625 28.675781 C 54.164062 29.203125 54.554688 29.636719 54.921875 30.015625 C 55.378906 30.492188 55.839844 30.964844 56.296875 31.4375 C 56.589844 31.738281 56.890625 32.058594 57.011719 32.460938 C 57.167969 33.007812 56.960938 33.59375 57.027344 34.15625 C 57.074219 34.546875 57.25 34.910156 57.417969 35.265625 C 58.390625 37.335938 59.125 39.523438 59.597656 41.765625 C 59.710938 42.300781 59.796875 42.894531 59.511719 43.359375 C 59.257812 43.773438 58.769531 43.96875 58.382812 44.265625 C 57.996094 44.558594 57.683594 45.113281 57.957031 45.519531 C 58.082031 45.699219 58.289062 45.796875 58.488281 45.878906 C 60.601562 46.773438 62.910156 47.078125 65.1875 47.375 C 65.589844 47.429688 65.996094 47.480469 66.402344 47.433594 C 67.109375 47.351562 67.777344 46.949219 68.183594 46.359375 C 69.851562 43.929688 72.226562 42.066406 75.101562 41.472656 C 78.714844 40.734375 82.523438 42.0625 86.113281 41.222656 C 87.625 39.351562 89.699219 37.726562 91.953125 36.902344 C 93.53125 36.328125 95.296875 36.0625 96.882812 36.617188 C 97.269531 36.753906 97.644531 36.9375 98.054688 36.957031 C 98.539062 36.984375 99 36.773438 99.441406 36.570312 C 99.941406 36.335938 100.441406 36.105469 100.941406 35.871094 C 100.296875 32.753906 99.625 29.363281 99.730469 26.179688 C 99.757812 25.371094 99.832031 24.5625 99.796875 23.753906 C 99.777344 23.308594 99.726562 22.867188 99.660156 22.425781 C 99.390625 20.550781 98.917969 18.703125 98.253906 16.929688 C 97.519531 14.972656 96.554688 13.113281 95.589844 11.257812 C 95.367188 10.824219 94.613281 10.75 94.132812 10.777344 C 93.648438 10.804688 93.179688 10.941406 92.699219 10.984375 C 90.8125 11.148438 89.089844 9.851562 87.199219 9.691406 C 86.359375 9.617188 85.515625 9.777344 84.683594 9.925781 C 84.5 9.957031 84.304688 9.988281 84.132812 9.921875 C 83.941406 9.84375 83.816406 9.660156 83.710938 9.480469 C 83.496094 9.121094 83.3125 8.742188 83.15625 8.351562 C 83.058594 8.101562 82.976562 7.792969 83.140625 7.578125 C 83.21875 7.472656 83.34375 7.410156 83.421875 7.304688 C 83.628906 7.027344 83.441406 6.628906 83.496094 6.289062 C 83.53125 6.082031 83.652344 5.902344 83.765625 5.726562 C 84.433594 4.710938 84.964844 3.609375 85.34375 2.453125 C 85.5 1.964844 85.640625 1.453125 85.976562 1.066406 C 86.496094 0.46875 87.359375 0.3125 88.148438 0.328125 C 89.777344 0.359375 91.394531 0.976562 92.632812 2.039062 C 92.96875 2.328125 93.273438 2.644531 93.605469 2.933594 C 93.886719 3.183594 94.191406 3.410156 94.492188 3.640625 C 95.207031 4.183594 95.921875 4.722656 96.636719 5.265625 C 97.183594 5.679688 97.726562 6.09375 98.269531 6.503906 C 98.960938 7.027344 99.652344 7.550781 100.40625 7.976562 C 101.746094 8.730469 102.019531 10.367188 102.792969 11.695312 C 103.265625 12.507812 103.847656 13.066406 104.390625 13.828125 C 105.40625 15.246094 106.417969 16.664062 107.433594 18.078125 C 108.105469 19.019531 108.777344 19.960938 109.414062 20.925781 C 112.839844 26.113281 115.183594 32.019531 116.261719 38.148438 C 116.390625 38.890625 116.019531 39.617188 115.601562 40.246094 C 115.179688 40.875 114.609375 41.386719 114.054688 41.902344 C 111.238281 44.535156 108.753906 47.507812 105.949219 50.152344 C 103.148438 52.800781 99.945312 55.15625 96.246094 56.214844 C 92.9375 57.164062 89.230469 57.089844 86.386719 59.035156 C 82.660156 61.585938 83.9375 67.6875 82.261719 71.894531 C 81.519531 73.753906 80.488281 75.492188 79.902344 77.40625 C 78.75 81.148438 77.957031 85.035156 76.328125 88.59375 C 75.730469 89.902344 75.039062 91.183594 74.65625 92.574219 C 73.902344 95.300781 74.378906 98.210938 75.066406 100.957031 C 75.75 103.703125 76.640625 106.4375 76.710938 109.265625 C 76.789062 112.558594 78.511719 115.644531 79.414062 118.8125 L 36.667969 118.8125 C 37.410156 116.527344 38.21875 114.46875 39.199219 112.277344 C 39.484375 111.632812 39.785156 110.984375 39.925781 110.292969 C 40.058594 109.640625 40.046875 108.96875 40.089844 108.308594 C 40.316406 104.832031 42.058594 101.496094 41.703125 98.03125 C 41.570312 96.753906 41.777344 95.488281 41.355469 94.273438 C 40.9375 93.0625 40.296875 91.9375 39.660156 90.824219 C 38.070312 88.042969 36.453125 85.253906 34.410156 82.789062 C 33.867188 83.515625 33.230469 84.246094 32.6875 84.972656 C 32.140625 85.703125 31.59375 86.433594 31.011719 87.136719 C 28.675781 89.976562 25.792969 92.390625 22.492188 93.996094 C 20.589844 94.921875 18.554688 95.578125 16.753906 96.6875 C 15.898438 97.210938 15.09375 97.839844 14.167969 98.230469 C 13.121094 98.671875 11.96875 98.792969 10.835938 98.828125 C 9.054688 98.882812 7.179688 98.710938 5.691406 97.722656 C 5.105469 97.332031 4.855469 96.625 4.539062 95.996094 C 4.128906 95.171875 3.714844 94.347656 3.304688 93.523438 C 2.917969 92.757812 2.535156 91.988281 2.214844 91.191406 C 1.269531 88.832031 0.914062 86.28125 0.671875 83.75 C 0.472656 81.699219 0.34375 79.640625 0.285156 77.582031 C 0.210938 74.96875 1.3125 72.324219 1.519531 69.71875 C 1.6875 67.621094 1.363281 65.453125 1.996094 63.449219 C 2.496094 61.855469 3.109375 60.15625 3.953125 58.71875 C 5.71875 55.699219 7.488281 52.679688 9.257812 49.660156 C 9.382812 49.445312 9.515625 49.222656 9.707031 49.0625 C 10.109375 48.726562 10.703125 48.722656 11.203125 48.886719 C 11.699219 49.054688 12.136719 49.363281 12.601562 49.605469 C 13.757812 50.21875 15.097656 50.441406 16.210938 51.125 C 16.390625 51.234375 16.566406 51.359375 16.667969 51.546875 C 16.773438 51.742188 16.777344 51.976562 16.839844 52.195312 C 16.964844 52.65625 17.328125 53.007812 17.605469 53.394531 C 17.886719 53.785156 18.097656 54.308594 17.871094 54.734375 C 17.78125 54.90625 17.628906 55.039062 17.472656 55.160156 C 16.777344 55.714844 15.992188 56.179688 15.457031 56.894531 C 15.175781 57.273438 14.976562 57.707031 14.703125 58.097656 C 13.292969 60.113281 10.230469 60.550781 9.066406 62.722656 C 8.625 63.546875 8.53125 64.511719 8.515625 65.449219 C 8.484375 67.359375 8.75 69.277344 9.300781 71.105469 C 9.71875 72.488281 10.621094 73.546875 11.371094 74.78125 C 11.730469 75.375 12.101562 75.960938 12.527344 76.507812 C 12.855469 76.929688 13.214844 77.328125 13.503906 77.773438 C 13.871094 78.339844 14.109375 78.972656 14.34375 79.605469 C 14.785156 78.757812 15.019531 77.789062 15.316406 76.878906 C 15.753906 75.527344 16.636719 74.359375 17.675781 73.398438 C 18.714844 72.433594 19.914062 71.660156 21.105469 70.902344 C 21.050781 69.019531 21.949219 67.257812 22.789062 65.578125 C 23.308594 64.527344 23.882812 63.496094 24.578125 62.550781 C 27.597656 58.441406 32.988281 56.230469 38.007812 57.042969 C 38.421875 57.109375 38.902344 56.902344 39.199219 56.609375 C 40.328125 55.488281 41.460938 54.371094 42.589844 53.25 C 42.957031 52.882812 43.332031 52.511719 43.597656 52.0625 C 44.160156 51.109375 44.164062 49.902344 43.851562 48.839844 C 43.539062 47.777344 42.941406 46.828125 42.339844 45.898438 C 41.945312 45.285156 41.53125 44.660156 40.953125 44.21875 C 40.574219 43.925781 40.132812 43.71875 39.722656 43.472656 C 38.125 42.519531 36.902344 40.929688 35.152344 40.308594 C 32.773438 39.460938 30.945312 37.117188 30.066406 34.738281 C 29.71875 33.789062 29.578125 32.765625 29.664062 31.757812 C 29.722656 31.058594 29.886719 30.371094 30.050781 29.6875 C 30.28125 28.730469 30.511719 27.769531 30.742188 26.808594 C 30.832031 26.441406 30.917969 26.070312 31.082031 25.730469 C 31.421875 25.03125 32.042969 24.523438 32.648438 24.042969 C 33.980469 22.980469 35.328125 21.929688 36.816406 21.109375 C 38.304688 20.285156 39.945312 19.691406 41.640625 19.613281 C 42.472656 19.574219 43.304688 19.65625 44.128906 19.773438 C 45.179688 19.921875 46.234375 20.125 47.195312 20.578125 C 48.15625 21.027344 48.953125 22.21875 49.679688 22.992188 Z M 49.679688 22.992188 " fill-opacity="1" fill-rule="nonzero"/></g></g></g></g></svg>